<?xml version="1.0" encoding="UTF-8" standalone="no"?>
<svg width="100px" height="100px" viewBox="0 0 100 100" version="1.1" xmlns="http://www.w3.org/2000/svg" xmlns:xlink="http://www.w3.org/1999/xlink">
    <!-- Generator: Sketch 3.6.1 (26313) - http://www.bohemiancoding.com/sketch -->
    <title>Artboard 7</title>
    <desc>Created with Sketch.</desc>
    <defs></defs>
    <g id="Page-1" stroke="none" stroke-width="1" fill="none" fill-rule="evenodd">
        <g id="Artboard-7" fill="#1A153B">
            <path d="M89.4766413,67.0269285 L54.7324566,48.5531586 L73.2062317,13.8089837 C81.7985458,19.2988786 88.0989648,27.5719899 91.1128527,37.4305221 C94.1270933,47.2890543 93.5299591,57.670652 89.4766413,67.0269285 L89.4766413,67.0269285 Z M65.8744952,89.9539855 L55.8163276,57.0558825 L86.1911684,73.206367 C81.3266228,80.8199148 74.2759944,86.6318319 65.8744952,89.9539855 L65.8744952,89.9539855 Z M32.9732085,89.476772 L49.1236975,59.1019397 L59.1815124,92.0003954 C50.3581747,93.9441674 41.2632521,93.0683942 32.9732085,89.476772 L32.9732085,89.476772 Z M8.88714731,62.5694089 C8.00678871,59.6902561 7.43751836,56.7663095 7.16910774,53.8363669 L35.8798733,69.1022605 L26.7937683,86.1909473 C18.2011015,80.7010523 11.9010352,72.4279411 8.88714731,62.5694089 L8.88714731,62.5694089 Z M39.1656989,62.922822 L7.18004169,45.9159633 C7.60223289,41.489482 8.72243278,37.1303679 10.5233587,32.9730025 L45.2675434,51.4467724 L39.1656989,62.922822 Z M22.6695563,16.7844256 L54.6548609,33.791637 L48.5530164,45.2673339 L13.8088316,26.793564 C16.2485113,22.9758562 19.2359461,19.6096141 22.6695563,16.7844256 L22.6695563,16.7844256 Z M67.0267915,10.5235117 L57.9406865,27.6121985 L29.2299209,12.346305 C31.8089202,10.9301836 34.5512231,9.76730644 37.4303767,8.88694808 C47.2889117,5.873061 57.670865,6.46984239 67.0267915,10.5235117 L67.0267915,10.5235117 Z M73.468999,5.86142165 C49.0919538,-7.10023269 18.8229253,2.15411128 5.86126732,26.5311495 C-7.10003799,50.9081878 2.1539559,81.1772077 26.531001,94.1385093 C50.9080462,107.100164 81.1770747,97.8461724 94.1387327,73.4687815 C107.100038,49.0917432 97.8460441,18.823076 73.468999,5.86142165 L73.468999,5.86142165 Z" id="Fill-1"></path>
        </g>
    </g>
</svg>