<?xml version="1.0" encoding="UTF-8" standalone="no"?>
<svg width="150px" height="54px" viewBox="0 0 150 54" version="1.1" xmlns="http://www.w3.org/2000/svg" xmlns:xlink="http://www.w3.org/1999/xlink">
    <!-- Generator: Sketch 3.6.1 (26313) - http://www.bohemiancoding.com/sketch -->
    <title>Artboard 6</title>
    <desc>Created with Sketch.</desc>
    <defs></defs>
    <g id="Page-1" stroke="none" stroke-width="1" fill="none" fill-rule="evenodd">
        <g id="Artboard-6" fill="#FFFFFF">
            <g id="Group" transform="translate(2.000000, 2.000000)">
                <path d="M44.6628369,33.4569288 L27.3200552,24.235626 L36.541358,6.89284434 C40.8302665,9.63316124 43.9751608,13.7627387 45.4795622,18.6836894 C46.9841397,23.6046401 46.6860763,28.7866824 44.6628369,33.4569288 L44.6628369,33.4569288 Z M32.8816749,44.901119 L27.8610763,28.4798162 L43.0228721,36.5414359 C40.5947031,40.341788 37.0753369,43.2428443 32.8816749,44.901119 L32.8816749,44.901119 Z M16.4587876,44.6629148 L24.5204073,29.501119 L29.5408299,45.9225979 C25.1366045,46.8928443 20.5968158,46.4556965 16.4587876,44.6629148 L16.4587876,44.6629148 Z M4.43607633,31.2319288 C3.99663971,29.794781 3.71248478,28.3352739 3.57850591,26.8727739 L17.9096679,34.4928443 L13.3742806,43.0227739 C9.08519605,40.282457 5.94047774,36.1528795 4.43607633,31.2319288 L4.43607633,31.2319288 Z M19.5498087,31.4083373 L3.58396366,22.9192528 C3.79470309,20.7097457 4.35385802,18.5338655 5.25280169,16.4586894 L22.5955834,25.6799922 L19.5498087,31.4083373 Z M11.3156538,8.37805561 L27.2813228,16.8673162 L24.2355482,22.5954852 L6.89276647,13.3741824 C8.11054816,11.4685486 9.60174535,9.78826687 11.3156538,8.37805561 L11.3156538,8.37805561 Z M33.456851,5.25287955 L28.9214637,13.7828091 L14.5903017,6.1627387 C15.8776256,5.45587251 17.2464637,4.87541476 18.6836115,4.43597814 C23.6045622,2.93157673 28.7867806,3.22946406 33.456851,5.25287955 L33.456851,5.25287955 Z M36.67252,2.92576687 C24.5045622,-3.54412749 9.39558338,1.0752387 2.92568901,13.2431965 C-3.5440293,25.4111542 1.07516084,40.5201331 13.2431186,46.9898514 C25.4110763,53.4597457 40.5200552,48.8405556 46.9899496,36.6724218 C53.4596679,24.5044641 48.8404777,9.39566124 36.67252,2.92576687 L36.67252,2.92576687 Z" id="Fill-1"></path>
                <path d="M58.07,24 L60.071,24 L60.071,17.307 L62.739,17.307 C65.867,17.307 68.489,15.95 68.489,12.454 L68.489,12.362 C68.489,8.935 65.89,7.555 62.739,7.555 L58.07,7.555 L58.07,24 Z M60.071,15.72 L60.071,9.165 L62.877,9.165 C65.108,9.165 66.488,10.039 66.488,12.362 L66.488,12.454 C66.488,14.57 65.223,15.72 62.877,15.72 L60.071,15.72 Z M71.295,24 L73.204,24 L73.204,17.399 C73.204,14.432 74.745,13.673 77.16,13.558 L77.16,11.764 C74.998,11.833 73.963,12.776 73.204,14.133 L73.204,11.971 L71.295,11.971 L71.295,24 Z M84.865,24.207 C87.579,24.207 89.58,22.942 89.994,20.527 L88.085,20.527 C87.832,21.93 86.751,22.62 84.888,22.62 C82.427,22.62 81.116,21.102 81.024,18.365 L90.086,18.365 L90.086,17.744 C90.086,13.443 87.464,11.764 84.681,11.764 C81.369,11.764 79.046,14.294 79.046,17.928 L79.046,18.112 C79.046,21.815 81.461,24.207 84.865,24.207 L84.865,24.207 Z M81.093,16.824 C81.415,14.685 82.726,13.351 84.681,13.351 C86.659,13.351 87.947,14.34 88.131,16.824 L81.093,16.824 Z M97.998,24.207 C100.896,24.207 102.989,22.275 103.242,19.676 L101.471,19.676 C101.264,21.631 99.723,22.62 98.021,22.62 C95.698,22.62 94.088,21.056 94.088,18.112 L94.088,17.928 C94.088,15.099 95.767,13.351 97.952,13.351 C99.608,13.351 100.988,14.064 101.287,15.973 L103.173,15.973 C102.805,12.914 100.459,11.764 97.952,11.764 C94.732,11.764 92.11,14.248 92.11,17.928 L92.11,18.112 C92.11,21.838 94.64,24.207 97.998,24.207 L97.998,24.207 Z M106.163,24 L108.072,24 L108.072,11.971 L106.163,11.971 L106.163,24 Z M107.083,9.464 C107.773,9.464 108.348,8.889 108.348,8.199 C108.348,7.509 107.773,6.934 107.083,6.934 C106.393,6.934 105.818,7.509 105.818,8.199 C105.818,8.889 106.393,9.464 107.083,9.464 L107.083,9.464 Z M111.982,24 L113.891,24 L113.891,16.709 C113.891,14.547 115.478,13.42 117.249,13.42 C119.181,13.42 120.078,14.363 120.078,16.479 L120.078,24 L121.987,24 L121.987,16.617 C121.987,13.121 120.239,11.764 117.755,11.764 C115.777,11.764 114.443,12.753 113.891,13.88 L113.891,11.971 L111.982,11.971 L111.982,24 Z M130.727,24.207 C133.625,24.207 135.718,22.275 135.971,19.676 L134.2,19.676 C133.993,21.631 132.452,22.62 130.75,22.62 C128.427,22.62 126.817,21.056 126.817,18.112 L126.817,17.928 C126.817,15.099 128.496,13.351 130.681,13.351 C132.337,13.351 133.717,14.064 134.016,15.973 L135.902,15.973 C135.534,12.914 133.188,11.764 130.681,11.764 C127.461,11.764 124.839,14.248 124.839,17.928 L124.839,18.112 C124.839,21.838 127.369,24.207 130.727,24.207 L130.727,24.207 Z M142.503,24.161 C143.285,24.161 143.745,24.046 144.136,23.908 L144.136,22.298 C143.722,22.459 143.262,22.551 142.664,22.551 C141.698,22.551 141.169,21.976 141.169,20.803 L141.169,13.581 L143.975,13.581 L143.975,11.971 L141.169,11.971 L141.169,9.234 L139.26,9.234 L139.26,11.971 L137.535,11.971 L137.535,13.581 L139.26,13.581 L139.26,20.987 C139.26,22.873 140.318,24.161 142.503,24.161 L142.503,24.161 Z" id="Precinct"></path>
                <path d="M83.946,43.62 C81.508,43.62 80.013,41.826 80.013,39.089 L80.013,38.905 C80.013,36.145 81.531,34.351 83.946,34.351 C86.338,34.351 87.879,36.145 87.879,38.928 L87.879,39.089 C87.879,41.803 86.361,43.62 83.946,43.62 L83.946,43.62 Z M83.923,45.207 C87.35,45.207 89.857,42.7 89.857,39.066 L89.857,38.882 C89.857,35.271 87.35,32.764 83.946,32.764 C80.542,32.764 78.035,35.294 78.035,38.905 L78.035,39.089 C78.035,42.608 80.496,45.207 83.923,45.207 L83.923,45.207 Z M92.824,45 L94.733,45 L94.733,37.709 C94.733,35.547 96.32,34.42 98.091,34.42 C100.023,34.42 100.92,35.363 100.92,37.479 L100.92,45 L102.829,45 L102.829,37.617 C102.829,34.121 101.081,32.764 98.597,32.764 C96.619,32.764 95.285,33.753 94.733,34.88 L94.733,32.971 L92.824,32.971 L92.824,45 Z M106.624,45 L108.556,45 L108.556,27.221 L106.624,27.221 L106.624,45 Z M112.512,45 L114.421,45 L114.421,32.971 L112.512,32.971 L112.512,45 Z M113.432,30.464 C114.122,30.464 114.697,29.889 114.697,29.199 C114.697,28.509 114.122,27.934 113.432,27.934 C112.742,27.934 112.167,28.509 112.167,29.199 C112.167,29.889 112.742,30.464 113.432,30.464 L113.432,30.464 Z M118.331,45 L120.24,45 L120.24,37.709 C120.24,35.547 121.827,34.42 123.598,34.42 C125.53,34.42 126.427,35.363 126.427,37.479 L126.427,45 L128.336,45 L128.336,37.617 C128.336,34.121 126.588,32.764 124.104,32.764 C122.126,32.764 120.792,33.753 120.24,34.88 L120.24,32.971 L118.331,32.971 L118.331,45 Z M137.007,45.207 C139.721,45.207 141.722,43.942 142.136,41.527 L140.227,41.527 C139.974,42.93 138.893,43.62 137.03,43.62 C134.569,43.62 133.258,42.102 133.166,39.365 L142.228,39.365 L142.228,38.744 C142.228,34.443 139.606,32.764 136.823,32.764 C133.511,32.764 131.188,35.294 131.188,38.928 L131.188,39.112 C131.188,42.815 133.603,45.207 137.007,45.207 L137.007,45.207 Z M133.235,37.824 C133.557,35.685 134.868,34.351 136.823,34.351 C138.801,34.351 140.089,35.34 140.273,37.824 L133.235,37.824 Z" id="online" opacity="0.5"></path>
            </g>
        </g>
    </g>
</svg>